<?xml version="1.0" encoding="utf-8"?>
<!-- Generator: Adobe Illustrator 19.2.1, SVG Export Plug-In . SVG Version: 6.00 Build 0)  -->
<svg version="1.1" id="Layer_1" xmlns="http://www.w3.org/2000/svg" xmlns:xlink="http://www.w3.org/1999/xlink" x="0px" y="0px"
	 viewBox="0 0 1728 1079.4" enable-background="new 0 0 1728 1079.4" xml:space="preserve">
<g>
	<defs>
		<rect id="SVGID_1_" x="523.4" y="226.8" width="705.1" height="705.1"/>
	</defs>
	<clipPath id="SVGID_2_">
		<use xlink:href="#SVGID_1_"  overflow="visible"/>
	</clipPath>
	<g clip-path="url(#SVGID_2_)">
		<defs>
			<rect id="SVGID_3_" x="523.4" y="226.8" width="705.1" height="705.1"/>
		</defs>
		<clipPath id="SVGID_4_">
			<use xlink:href="#SVGID_3_"  overflow="visible"/>
		</clipPath>
		<g clip-path="url(#SVGID_4_)">
			<path fill="#FFFFFF" d="M1085.2,452.8c-18.8-38.1-42.4-69.6-90.5-97.2c-34.7-19.9-82-31.3-123.7-31.3c-41.7,0-86.6,10.4-124,32
				c-37.8,21.8-71.1,52.1-92.9,101.9c-4.6,10.6-8.6,22.6-12.5,35.8c-3.8,13.2-6.9,27.6-9.3,43.1c-2.4,15.6-3.5,32-3.5,49.5
				c0,17.5,1.4,33.8,3.5,49.2c5.2,37.8,18.4,73.5,30,93.8c12.1,21,23.8,52.6,87.8,88.6c36.7,20.7,79.1,30.1,120.8,30.1
				c41.7,0,78.3-9.5,115.3-26.8c33.1-15.5,84-61.3,100.9-105.4c4.2-11,8.6-22.9,12.5-36.1c3.8-13.2,7-27.7,9.6-43.5
				c2.6-15.7,3.8-32.3,3.8-49.8c0-17.9-1.3-34.6-3.8-50.1C1106.7,520.9,1098.9,480.6,1085.2,452.8z"/>
			<path fill="#FFFFFF" d="M22,143.4v936h1728v-936H22z M1089.4,312.4c18-9.2,35.6-1.5,42.9,13c7.4,14.5,0.9,35.9-12.4,42.7
				c-23.3,11.9-44-12.6-71.7,8.2C1048.2,376.2,1071.4,321.5,1089.4,312.4z M1114.4,689.4c-13.6,32-32.4,59.8-56.2,83.7
				c-24.3,24.3-52.4,43.2-84.3,56.9c-33.2,13.7-67.5,20.5-102.9,20.5c-35.3,0-69.6-6.8-102.9-20.5c-31.5-13.2-59.4-32.1-83.7-56.9
				c-24.7-24.3-43.7-52.2-56.9-83.7c-13.6-33.2-20.4-67.5-20.4-102.9c0-35.3,6.8-69.6,20.4-102.9c13.6-31.9,32.6-60,56.9-84.3
				c23.9-23.8,51.7-42.6,83.7-56.2c32.4-14.1,66.6-21.1,102.9-21.1c35.8,0,70.1,7,102.9,21.1c31.9,13.6,63,35,83.7,56.2
				c0,0,33.3,29.6,56.9,84.3c14.1,32.8,21.1,67.1,21.1,102.9C1135.4,622.7,1128.4,657,1114.4,689.4z"/>
		</g>
	</g>
</g>
<rect x="-23.4" y="114" fill="#FFFFFF" width="571.8" height="1030.4"/>
<rect x="-50.4" y="930" fill="#FFFFFF" width="2141.9" height="255"/>
<rect x="1182.6" y="88.5" fill="#FFFFFF" width="700.5" height="1210.4"/>
<rect x="-36.5" y="-1.5" fill="#FFFFFF" width="1791.3" height="249"/>
</svg>
