<?xml version="1.0" standalone="no"?>
<!DOCTYPE svg PUBLIC "-//W3C//DTD SVG 20010904//EN"
 "http://www.w3.org/TR/2001/REC-SVG-20010904/DTD/svg10.dtd">
<svg version="1.0" xmlns="http://www.w3.org/2000/svg"
 width="769.000000pt" height="769.000000pt" viewBox="0 0 769.000000 769.000000"
 preserveAspectRatio="xMidYMid meet">
<metadata>
Created by potrace 1.11, written by Peter Selinger 2001-2013
</metadata>
<g transform="translate(0.000000,769.000000) scale(0.100000,-0.100000)"
fill="#000000" stroke="none">
<path d="M6555 7099 c-125 -44 -216 -145 -365 -402 -60 -106 -169 -327 -185
-376 l-7 -24 28 20 c103 73 247 102 385 78 54 -9 82 -14 109 -20 263 -53 424
16 501 214 29 74 35 209 12 278 -31 93 -102 174 -192 219 -77 38 -200 44 -286
13z"/>
<path d="M3708 6955 c-2 -1 -46 -5 -98 -9 -52 -3 -111 -8 -130 -11 -19 -3 -55
-7 -80 -10 -432 -51 -976 -267 -1378 -547 -253 -176 -522 -433 -711 -682 -150
-197 -305 -462 -396 -677 -100 -238 -192 -568 -221 -794 -3 -27 -8 -58 -9 -67
-19 -99 -27 -562 -12 -698 12 -109 18 -153 27 -210 5 -30 12 -73 16 -95 11
-73 75 -319 111 -425 91 -272 190 -475 363 -745 24 -37 142 -197 170 -229 386
-451 746 -725 1225 -934 180 -78 519 -181 649 -197 27 -3 51 -7 55 -9 6 -4 26
-8 156 -25 269 -38 655 -31 920 15 688 119 1235 395 1724 869 115 111 279 299
341 390 18 28 36 52 40 55 3 3 41 61 84 129 179 283 333 643 405 944 40 168
46 197 56 277 4 29 9 62 11 73 25 134 26 685 0 822 -2 11 -6 43 -10 70 -9 65
-43 231 -66 320 -136 529 -437 1060 -815 1439 -139 139 -148 147 -265 242
-233 188 -552 375 -830 489 -241 99 -569 183 -820 210 -30 3 -77 8 -105 11
-47 6 -402 13 -407 9z m397 -39 c81 -8 166 -17 190 -22 10 -2 37 -6 60 -9 22
-3 47 -8 55 -10 8 -2 30 -7 48 -10 19 -3 73 -15 120 -26 48 -11 94 -22 102
-24 244 -57 580 -205 820 -363 365 -239 616 -502 828 -868 67 -116 157 -302
196 -406 95 -255 203 -713 231 -983 25 -242 25 -717 0 -867 -2 -13 -6 -43 -9
-68 -3 -25 -7 -54 -10 -65 -2 -11 -7 -45 -11 -75 -28 -219 -143 -633 -255
-915 -106 -267 -275 -509 -546 -779 -138 -139 -270 -250 -424 -358 -240 -169
-665 -338 -1030 -412 -121 -24 -132 -26 -185 -32 -27 -3 -56 -7 -62 -9 -66
-22 -605 -23 -733 -1 -14 2 -47 7 -75 10 -47 6 -64 8 -125 21 -14 3 -43 8 -65
11 -116 16 -408 104 -546 164 -270 117 -533 274 -754 451 -114 92 -269 250
-347 354 -103 138 -286 463 -358 635 -17 41 -37 89 -45 105 -74 165 -181 590
-210 830 -4 28 -8 60 -10 73 -2 12 -7 60 -10 105 -4 45 -8 98 -11 117 -6 50
-6 483 0 555 3 33 8 80 10 105 3 25 8 70 11 100 7 63 8 70 30 205 9 55 20 114
25 130 5 17 11 44 13 60 15 100 123 457 184 605 41 98 131 281 168 340 14 22
25 44 25 50 0 5 5 10 10 10 6 0 10 5 10 11 0 14 104 159 184 259 236 291 655
603 1006 749 30 13 69 29 85 36 157 71 509 163 727 191 24 3 54 7 68 10 14 2
70 7 125 10 55 4 101 8 103 9 5 4 327 -4 387 -9z"/>
</g>
</svg>
