<?xml version="1.0" standalone="no"?>
<!DOCTYPE svg PUBLIC "-//W3C//DTD SVG 20010904//EN"
 "http://www.w3.org/TR/2001/REC-SVG-20010904/DTD/svg10.dtd">
<svg version="1.0" xmlns="http://www.w3.org/2000/svg"
 width="225.000000pt" height="225.000000pt" viewBox="0 0 225.000000 225.000000"
 preserveAspectRatio="xMidYMid meet">
<metadata>
Created by potrace 1.11, written by Peter Selinger 2001-2013
</metadata>
<g transform="translate(0.000000,225.000000) scale(0.100000,-0.100000)"
fill="#000000" stroke="none">
<path d="M10 1125 l0 -1125 1115 0 1115 0 0 1125 0 1125 -1115 0 -1115 0 0
-1125z m1204 682 c15 -46 29 -105 32 -132 l6 -50 -80 -80 c-79 -81 -123 -148
-137 -215 -12 -54 -7 -151 9 -198 9 -24 11 -42 5 -42 -5 0 -43 33 -83 73 -62
61 -77 81 -90 128 -30 101 9 202 135 352 82 99 159 212 159 234 0 36 20 4 44
-70z m239 -203 c7 -41 8 -76 1 -100 -8 -34 -17 -42 -86 -79 -141 -75 -202
-141 -243 -264 l-22 -65 -14 40 c-7 21 -14 71 -14 109 0 118 43 189 203 339
29 27 69 76 90 109 l37 60 19 -44 c10 -23 23 -71 29 -105z m-577 13 l16 -48
-31 -63 c-75 -152 -45 -286 89 -394 l54 -45 -49 7 c-162 22 -254 92 -276 211
-11 61 6 130 55 214 39 68 71 138 91 196 6 19 7 19 20 -5 8 -14 22 -47 31 -73z
m713 -132 c-13 -131 -61 -246 -131 -312 -61 -58 -180 -103 -274 -103 -35 0
-35 1 -29 33 12 62 64 154 114 200 27 25 81 62 121 82 78 39 148 98 181 152
12 19 22 33 24 31 1 -2 -2 -39 -6 -83z m-344 -505 l0 -45 -162 -3 -163 -2 0
43 c0 24 3 47 7 51 4 3 77 5 162 4 l156 -3 0 -45z m-71 -98 c6 -10 -70 -607
-79 -621 -14 -23 -33 -10 -39 27 -5 31 -66 585 -66 598 0 8 179 4 184 -4z"/>
</g>
</svg>
