<?xml version="1.0" encoding="utf-8"?>
<!-- Generator: Adobe Illustrator 22.0.1, SVG Export Plug-In . SVG Version: 6.00 Build 0)  -->
<svg version="1.1" id="Layer_1" xmlns="http://www.w3.org/2000/svg" xmlns:xlink="http://www.w3.org/1999/xlink" x="0px" y="0px"
	 viewBox="0 0 247.5 242.9" style="enable-background:new 0 0 247.5 242.9;" xml:space="preserve">
<style type="text/css">
	.st0{fill:#FFFFFF;}
</style>
<g>
	<g>
		<g>
			<polygon class="st0" points="86.6,109 86.6,115.4 134.1,142.8 139.7,139.6 			"/>
			<polygon class="st0" points="122.2,67.3 119,69.2 157.9,91.6 157.9,87.9 			"/>
			<polygon class="st0" points="86.6,87.9 86.6,91 155.2,130.7 157.9,129.1 157.9,125.8 89.4,86.3 			"/>
			<polygon class="st0" points="86.6,100.9 86.6,107.3 141.1,138.8 146.7,135.6 			"/>
			<polygon class="st0" points="86.6,129.1 122.2,149.7 125.6,147.8 86.6,125.2 			"/>
			<polygon class="st0" points="86.6,117.1 86.6,123.5 127.1,146.9 132.6,143.7 			"/>
			<polygon class="st0" points="86.6,92.8 86.6,99.1 148.2,134.7 153.7,131.5 			"/>
			<polygon class="st0" points="117.5,70 112,73.2 157.9,99.7 157.9,93.3 			"/>
			<polygon class="st0" points="110.5,74.1 105,77.3 157.9,107.9 157.9,101.5 			"/>
			<polygon class="st0" points="96.5,82.2 90.9,85.4 157.9,124.1 157.9,117.7 			"/>
			<polygon class="st0" points="103.5,78.2 97.9,81.4 157.9,116 157.9,109.6 			"/>
		</g>
		<g>
			<polygon class="st0" points="30.2,50.6 30.2,54.3 58.1,70.4 61.3,68.5 			"/>
			<polygon class="st0" points="51.1,26.1 49.2,27.2 72,40.4 72,38.2 			"/>
			<polygon class="st0" points="30.2,38.2 30.2,40 70.4,63.3 72,62.4 72,60.4 31.9,37.3 			"/>
			<polygon class="st0" points="30.2,45.8 30.2,49.6 62.2,68 65.4,66.2 			"/>
			<polygon class="st0" points="30.2,62.4 51.1,74.4 53.1,73.3 30.2,60.1 			"/>
			<polygon class="st0" points="30.2,55.3 30.2,59.1 53.9,72.8 57.2,70.9 			"/>
			<polygon class="st0" points="30.2,41 30.2,44.8 66.3,65.6 69.6,63.8 			"/>
			<polygon class="st0" points="48.4,27.7 45.1,29.6 72,45.1 72,41.4 			"/>
			<polygon class="st0" points="44.2,30.1 41,32 72,49.9 72,46.1 			"/>
			<polygon class="st0" points="36,34.9 32.7,36.7 72,59.4 72,55.7 			"/>
			<polygon class="st0" points="40.1,32.5 36.9,34.4 72,54.7 72,50.9 			"/>
		</g>
		<g>
			<polygon class="st0" points="158,180.5 158,183.6 181.5,197.2 184.3,195.7 			"/>
			<polygon class="st0" points="175.7,159.8 174.1,160.7 193.3,171.8 193.3,170 			"/>
			<polygon class="st0" points="158,170 158,171.6 192,191.2 193.3,190.4 193.3,188.8 159.4,169.2 			"/>
			<polygon class="st0" points="158,176.4 158,179.6 185,195.2 187.8,193.7 			"/>
			<polygon class="st0" points="158,190.4 175.7,200.7 177.3,199.7 158,188.5 			"/>
			<polygon class="st0" points="158,184.5 158,187.7 178.1,199.3 180.8,197.7 			"/>
			<polygon class="st0" points="158,172.4 158,175.6 188.5,193.2 191.3,191.6 			"/>
			<polygon class="st0" points="173.3,161.2 170.6,162.7 193.3,175.9 193.3,172.7 			"/>
			<polygon class="st0" points="169.8,163.2 167.1,164.8 193.3,179.9 193.3,176.7 			"/>
			<polygon class="st0" points="162.9,167.2 160.1,168.8 193.3,188 193.3,184.8 			"/>
			<polygon class="st0" points="166.4,165.2 163.6,166.8 193.3,183.9 193.3,180.8 			"/>
		</g>
		<g>
			<polygon class="st0" points="193.4,41.4 193.4,44 213.4,55.6 215.7,54.2 			"/>
			<polygon class="st0" points="208.4,23.8 207.1,24.6 223.4,34 223.4,32.5 			"/>
			<polygon class="st0" points="193.4,32.5 193.4,33.8 222.3,50.5 223.4,49.8 223.4,48.4 194.6,31.8 			"/>
			<polygon class="st0" points="193.4,37.9 193.4,40.6 216.4,53.9 218.7,52.5 			"/>
			<polygon class="st0" points="193.4,49.8 208.4,58.5 209.8,57.7 193.4,48.2 			"/>
			<polygon class="st0" points="193.4,44.8 193.4,47.5 210.5,57.3 212.8,56 			"/>
			<polygon class="st0" points="193.4,34.5 193.4,37.2 219.3,52.2 221.7,50.8 			"/>
			<polygon class="st0" points="206.5,25 204.1,26.3 223.4,37.5 223.4,34.8 			"/>
			<polygon class="st0" points="203.5,26.7 201.2,28 223.4,40.9 223.4,38.2 			"/>
			<polygon class="st0" points="197.6,30.1 195.3,31.4 223.4,47.7 223.4,45 			"/>
			<polygon class="st0" points="200.5,28.4 198.2,29.7 223.4,44.3 223.4,41.6 			"/>
		</g>
		<g>
			<polygon class="st0" points="145,156.1 158.7,164 159.1,163.7 145,155.6 			"/>
			<polygon class="st0" points="145,153.8 160.7,162.8 161.1,162.6 145,153.3 			"/>
			<polygon class="st0" points="145,151.5 162.7,161.7 163.1,161.5 145,151 			"/>
			<polygon class="st0" points="145,149.3 164.6,160.6 165,160.3 145,148.8 			"/>
			<polygon class="st0" points="145,147 166.6,159.4 167,159.2 145,146.5 			"/>
			<polygon class="st0" points="145,144.7 168.6,158.3 169,158.1 145,144.2 			"/>
			<polygon class="st0" points="145,142.2 145,142.5 170.5,157.2 170.8,157 170.8,156.8 145.2,142.1 			"/>
			<polygon class="st0" points="146.7,141.2 170.8,155.1 170.8,154.6 147.2,140.9 			"/>
			<polygon class="st0" points="148.7,140 170.8,152.8 170.8,152.3 149.1,139.8 			"/>
			<polygon class="st0" points="150.7,138.9 170.8,150.5 170.8,150 151.1,138.7 			"/>
			<polygon class="st0" points="152.6,137.8 170.8,148.2 170.8,147.8 153.1,137.5 			"/>
			<polygon class="st0" points="154.6,136.6 170.8,146 170.8,145.5 155,136.4 			"/>
			<polygon class="st0" points="156.6,135.5 170.8,143.7 170.8,143.2 157,135.3 			"/>
		</g>
		<g>
			<polygon class="st0" points="38.2,129.8 51.9,137.8 52.3,137.5 38.2,129.4 			"/>
			<polygon class="st0" points="38.2,127.6 53.8,136.6 54.2,136.4 38.2,127.1 			"/>
			<polygon class="st0" points="38.2,125.3 55.8,135.5 56.2,135.2 38.2,124.8 			"/>
			<polygon class="st0" points="38.2,123 57.8,134.3 58.2,134.1 38.2,122.5 			"/>
			<polygon class="st0" points="38.2,120.8 59.7,133.2 60.1,133 38.2,120.3 			"/>
			<polygon class="st0" points="38.2,118.5 61.7,132.1 62.1,131.8 38.2,118 			"/>
			<polygon class="st0" points="38.2,115.9 38.2,116.2 63.7,130.9 63.9,130.8 63.9,130.6 38.3,115.8 			"/>
			<polygon class="st0" points="39.9,114.9 63.9,128.8 63.9,128.3 40.3,114.7 			"/>
			<polygon class="st0" points="41.8,113.8 63.9,126.5 63.9,126.1 42.3,113.6 			"/>
			<polygon class="st0" points="43.8,112.7 63.9,124.3 63.9,123.8 44.2,112.4 			"/>
			<polygon class="st0" points="45.8,111.5 63.9,122 63.9,121.5 46.2,111.3 			"/>
			<polygon class="st0" points="47.7,110.4 63.9,119.7 63.9,119.3 48.1,110.2 			"/>
			<polygon class="st0" points="49.7,109.3 63.9,117.5 63.9,117 50.1,109 			"/>
		</g>
		<g>
			<polygon class="st0" points="41.9,93 51.6,98.6 51.9,98.4 41.9,92.6 			"/>
			<polygon class="st0" points="41.9,91.4 53,97.8 53.3,97.6 41.9,91 			"/>
			<polygon class="st0" points="41.9,89.7 54.4,97 54.7,96.8 41.9,89.4 			"/>
			<polygon class="st0" points="41.9,88.1 55.8,96.2 56.1,96 41.9,87.8 			"/>
			<polygon class="st0" points="41.9,86.5 57.2,95.4 57.5,95.2 41.9,86.2 			"/>
			<polygon class="st0" points="41.9,84.9 58.6,94.5 58.9,94.4 41.9,84.6 			"/>
			<polygon class="st0" points="41.9,83.1 41.9,83.3 60,93.7 60.2,93.6 60.2,93.5 42,83 			"/>
			<polygon class="st0" points="43.1,82.4 60.2,92.2 60.2,91.9 43.4,82.2 			"/>
			<polygon class="st0" points="44.5,81.6 60.2,90.6 60.2,90.3 44.8,81.4 			"/>
			<polygon class="st0" points="45.9,80.8 60.2,89 60.2,88.7 46.2,80.6 			"/>
			<polygon class="st0" points="47.3,80 60.2,87.4 60.2,87.1 47.6,79.8 			"/>
			<polygon class="st0" points="48.7,79.2 60.2,85.8 60.2,85.5 49,79 			"/>
			<polygon class="st0" points="50.1,78.4 60.2,84.2 60.2,83.9 50.4,78.2 			"/>
		</g>
		<g>
			<polygon class="st0" points="168.2,35.8 177.9,41.4 178.2,41.2 168.2,35.4 			"/>
			<polygon class="st0" points="168.2,34.2 179.3,40.6 179.6,40.4 168.2,33.8 			"/>
			<polygon class="st0" points="168.2,32.5 180.7,39.8 181,39.6 168.2,32.2 			"/>
			<polygon class="st0" points="168.2,30.9 182.1,39 182.4,38.8 168.2,30.6 			"/>
			<polygon class="st0" points="168.2,29.3 183.5,38.2 183.8,38 168.2,29 			"/>
			<polygon class="st0" points="168.2,27.7 184.9,37.4 185.2,37.2 168.2,27.4 			"/>
			<polygon class="st0" points="168.2,25.9 168.2,26.1 186.3,36.5 186.4,36.4 186.4,36.3 168.3,25.8 			"/>
			<polygon class="st0" points="169.4,25.2 186.4,35 186.4,34.7 169.7,25 			"/>
			<polygon class="st0" points="170.8,24.4 186.4,33.4 186.4,33.1 171.1,24.2 			"/>
			<polygon class="st0" points="172.2,23.6 186.4,31.8 186.4,31.5 172.5,23.4 			"/>
			<polygon class="st0" points="173.6,22.8 186.4,30.2 186.4,29.9 173.9,22.6 			"/>
			<polygon class="st0" points="175,22 186.4,28.6 186.4,28.3 175.3,21.8 			"/>
			<polygon class="st0" points="176.4,21.2 186.4,27 186.4,26.7 176.7,21 			"/>
		</g>
		<g>
			<polygon class="st0" points="169.1,114.7 178.8,120.3 179.1,120.2 169.1,114.4 			"/>
			<polygon class="st0" points="169.1,113.1 180.2,119.5 180.5,119.4 169.1,112.8 			"/>
			<polygon class="st0" points="169.1,111.5 181.6,118.7 181.9,118.6 169.1,111.2 			"/>
			<polygon class="st0" points="169.1,109.9 183,117.9 183.3,117.8 169.1,109.6 			"/>
			<polygon class="st0" points="169.1,108.3 184.4,117.1 184.7,116.9 169.1,107.9 			"/>
			<polygon class="st0" points="169.1,106.7 185.8,116.3 186.1,116.1 169.1,106.3 			"/>
			<polygon class="st0" points="169.1,104.9 169.1,105.1 187.2,115.5 187.3,115.4 187.3,115.3 169.2,104.8 			"/>
			<polygon class="st0" points="170.3,104.2 187.3,114 187.3,113.7 170.6,104 			"/>
			<polygon class="st0" points="171.7,103.4 187.3,112.4 187.3,112.1 172,103.2 			"/>
			<polygon class="st0" points="173.1,102.6 187.3,110.8 187.3,110.4 173.4,102.4 			"/>
			<polygon class="st0" points="174.5,101.7 187.3,109.2 187.3,108.8 174.8,101.6 			"/>
			<polygon class="st0" points="175.9,100.9 187.3,107.6 187.3,107.2 176.2,100.8 			"/>
			<polygon class="st0" points="177.3,100.1 187.3,106 187.3,105.6 177.6,100 			"/>
		</g>
		<g>
			<polygon class="st0" points="104,43 113.7,48.6 114,48.4 104,42.6 			"/>
			<polygon class="st0" points="104,41.4 115.1,47.8 115.4,47.6 104,41 			"/>
			<polygon class="st0" points="104,39.8 116.5,47 116.8,46.8 104,39.4 			"/>
			<polygon class="st0" points="104,38.1 117.9,46.2 118.2,46 104,37.8 			"/>
			<polygon class="st0" points="104,36.5 119.3,45.4 119.6,45.2 104,36.2 			"/>
			<polygon class="st0" points="104,34.9 120.7,44.6 121,44.4 104,34.6 			"/>
			<polygon class="st0" points="104,33.1 104,33.3 122.1,43.8 122.2,43.7 122.2,43.5 104.1,33 			"/>
			<polygon class="st0" points="105.2,32.4 122.2,42.3 122.2,41.9 105.5,32.2 			"/>
			<polygon class="st0" points="106.6,31.6 122.2,40.6 122.2,40.3 106.9,31.4 			"/>
			<polygon class="st0" points="108,30.8 122.2,39 122.2,38.7 108.3,30.6 			"/>
			<polygon class="st0" points="109.4,30 122.2,37.4 122.2,37.1 109.7,29.8 			"/>
			<polygon class="st0" points="110.8,29.2 122.2,35.8 122.2,35.5 111.1,29 			"/>
			<polygon class="st0" points="112.2,28.4 122.2,34.2 122.2,33.9 112.5,28.2 			"/>
		</g>
		<g>
			<polygon class="st0" points="198.4,173.8 208.1,179.4 208.4,179.2 198.4,173.4 			"/>
			<polygon class="st0" points="198.4,172.2 209.5,178.6 209.8,178.4 198.4,171.8 			"/>
			<polygon class="st0" points="198.4,170.6 210.9,177.8 211.2,177.6 198.4,170.2 			"/>
			<polygon class="st0" points="198.4,169 212.3,177 212.6,176.8 198.4,168.6 			"/>
			<polygon class="st0" points="198.4,167.3 213.7,176.2 214,176 198.4,167 			"/>
			<polygon class="st0" points="198.4,165.7 215.1,175.4 215.4,175.2 198.4,165.4 			"/>
			<polygon class="st0" points="198.4,163.9 198.4,164.1 216.5,174.6 216.7,174.5 216.7,174.3 198.5,163.8 			"/>
			<polygon class="st0" points="199.6,163.2 216.7,173.1 216.7,172.7 199.9,163 			"/>
			<polygon class="st0" points="201,162.4 216.7,171.4 216.7,171.1 201.3,162.2 			"/>
			<polygon class="st0" points="202.4,161.6 216.7,169.8 216.7,169.5 202.7,161.4 			"/>
			<polygon class="st0" points="203.8,160.8 216.7,168.2 216.7,167.9 204.1,160.6 			"/>
			<polygon class="st0" points="205.2,160 216.7,166.6 216.7,166.3 205.5,159.8 			"/>
			<polygon class="st0" points="206.6,159.2 216.7,165 216.7,164.7 206.9,159 			"/>
		</g>
		<g>
			<polygon class="st0" points="3.7,71.5 16.3,78.7 16.6,78.5 3.7,71.1 			"/>
			<polygon class="st0" points="3.7,69.4 18.1,77.7 18.4,77.5 3.7,69 			"/>
			<polygon class="st0" points="3.7,67.4 19.9,76.7 20.2,76.5 3.7,66.9 			"/>
			<polygon class="st0" points="3.7,65.3 21.7,75.6 22,75.4 3.7,64.8 			"/>
			<polygon class="st0" points="3.7,63.2 23.4,74.6 23.8,74.4 3.7,62.8 			"/>
			<polygon class="st0" points="3.7,61.1 25.2,73.6 25.6,73.3 3.7,60.7 			"/>
			<polygon class="st0" points="3.7,58.8 3.7,59 27,72.5 27.3,72.4 27.3,72.2 3.9,58.7 			"/>
			<polygon class="st0" points="5.3,57.9 27.3,70.6 27.3,70.1 5.7,57.7 			"/>
			<polygon class="st0" points="7.1,56.8 27.3,68.5 27.3,68.1 7.5,56.6 			"/>
			<polygon class="st0" points="8.9,55.8 27.3,66.4 27.3,66 9.3,55.6 			"/>
			<polygon class="st0" points="10.7,54.8 27.3,64.3 27.3,63.9 11.1,54.5 			"/>
			<polygon class="st0" points="12.5,53.7 27.3,62.3 27.3,61.8 12.9,53.5 			"/>
			<polygon class="st0" points="14.3,52.7 27.3,60.2 27.3,59.7 14.7,52.5 			"/>
		</g>
		<g>
			<polygon class="st0" points="9.1,109.2 15.9,113.2 16.1,113 9.1,109 			"/>
			<polygon class="st0" points="9.1,108.1 16.9,112.6 17.1,112.5 9.1,107.9 			"/>
			<polygon class="st0" points="9.1,107 17.9,112 18.1,111.9 9.1,106.7 			"/>
			<polygon class="st0" points="9.1,105.8 18.8,111.5 19,111.3 9.1,105.6 			"/>
			<polygon class="st0" points="9.1,104.7 19.8,110.9 20,110.8 9.1,104.5 			"/>
			<polygon class="st0" points="9.1,103.6 20.8,110.3 21,110.2 9.1,103.3 			"/>
			<polygon class="st0" points="9.1,102.3 9.1,102.5 21.8,109.8 21.9,109.7 21.9,109.6 9.2,102.3 			"/>
			<polygon class="st0" points="10,101.8 21.9,108.7 21.9,108.5 10.2,101.7 			"/>
			<polygon class="st0" points="10.9,101.3 21.9,107.6 21.9,107.4 11.1,101.1 			"/>
			<polygon class="st0" points="11.9,100.7 21.9,106.5 21.9,106.2 12.1,100.6 			"/>
			<polygon class="st0" points="12.9,100.1 21.9,105.3 21.9,105.1 13.1,100 			"/>
			<polygon class="st0" points="13.9,99.6 21.9,104.2 21.9,104 14.1,99.5 			"/>
			<polygon class="st0" points="14.8,99 21.9,103.1 21.9,102.8 15,98.9 			"/>
		</g>
		<g>
			<polygon class="st0" points="231.5,92.6 238.3,96.5 238.5,96.4 231.5,92.4 			"/>
			<polygon class="st0" points="231.5,91.5 239.3,96 239.5,95.9 231.5,91.2 			"/>
			<polygon class="st0" points="231.5,90.4 240.2,95.4 240.4,95.3 231.5,90.1 			"/>
			<polygon class="st0" points="231.5,89.2 241.2,94.8 241.4,94.7 231.5,89 			"/>
			<polygon class="st0" points="231.5,88.1 242.2,94.3 242.4,94.2 231.5,87.9 			"/>
			<polygon class="st0" points="231.5,87 243.2,93.7 243.4,93.6 231.5,86.7 			"/>
			<polygon class="st0" points="231.5,85.7 231.5,85.8 244.1,93.2 244.3,93.1 244.3,93 231.6,85.7 			"/>
			<polygon class="st0" points="232.3,85.2 244.3,92.1 244.3,91.9 232.5,85.1 			"/>
			<polygon class="st0" points="233.3,84.6 244.3,91 244.3,90.7 233.5,84.5 			"/>
			<polygon class="st0" points="234.3,84.1 244.3,89.8 244.3,89.6 234.5,84 			"/>
			<polygon class="st0" points="235.3,83.5 244.3,88.7 244.3,88.5 235.5,83.4 			"/>
			<polygon class="st0" points="236.2,83 244.3,87.6 244.3,87.4 236.4,82.8 			"/>
			<polygon class="st0" points="237.2,82.4 244.3,86.5 244.3,86.2 237.4,82.3 			"/>
		</g>
		<g>
			<polygon class="st0" points="91.6,233.5 98.4,237.4 98.6,237.3 91.6,233.2 			"/>
			<polygon class="st0" points="91.6,232.4 99.3,236.8 99.5,236.7 91.6,232.1 			"/>
			<polygon class="st0" points="91.6,231.2 100.3,236.3 100.5,236.2 91.6,231 			"/>
			<polygon class="st0" points="91.6,230.1 101.3,235.7 101.5,235.6 91.6,229.9 			"/>
			<polygon class="st0" points="91.6,229 102.3,235.2 102.5,235 91.6,228.7 			"/>
			<polygon class="st0" points="91.6,227.8 103.2,234.6 103.4,234.5 91.6,227.6 			"/>
			<polygon class="st0" points="91.6,226.6 91.6,226.7 104.2,234 104.3,234 104.3,233.9 91.6,226.5 			"/>
			<polygon class="st0" points="92.4,226.1 104.3,233 104.3,232.7 92.6,226 			"/>
			<polygon class="st0" points="93.4,225.5 104.3,231.9 104.3,231.6 93.6,225.4 			"/>
			<polygon class="st0" points="94.4,225 104.3,230.7 104.3,230.5 94.6,224.8 			"/>
			<polygon class="st0" points="95.3,224.4 104.3,229.6 104.3,229.4 95.5,224.3 			"/>
			<polygon class="st0" points="96.3,223.8 104.3,228.5 104.3,228.2 96.5,223.7 			"/>
			<polygon class="st0" points="97.3,223.3 104.3,227.3 104.3,227.1 97.5,223.1 			"/>
		</g>
		<g>
			<polygon class="st0" points="115.7,13.7 122.5,17.6 122.7,17.5 115.7,13.4 			"/>
			<polygon class="st0" points="115.7,12.5 123.5,17 123.7,16.9 115.7,12.3 			"/>
			<polygon class="st0" points="115.7,11.4 124.5,16.5 124.7,16.3 115.7,11.2 			"/>
			<polygon class="st0" points="115.7,10.3 125.5,15.9 125.7,15.8 115.7,10 			"/>
			<polygon class="st0" points="115.7,9.2 126.4,15.3 126.6,15.2 115.7,8.9 			"/>
			<polygon class="st0" points="115.7,8 127.4,14.8 127.6,14.7 115.7,7.8 			"/>
			<polygon class="st0" points="115.7,6.8 115.7,6.9 128.4,14.2 128.5,14.1 128.5,14 115.8,6.7 			"/>
			<polygon class="st0" points="116.6,6.3 128.5,13.2 128.5,12.9 116.8,6.1 			"/>
			<polygon class="st0" points="117.5,5.7 128.5,12 128.5,11.8 117.7,5.6 			"/>
			<polygon class="st0" points="118.5,5.1 128.5,10.9 128.5,10.7 118.7,5 			"/>
			<polygon class="st0" points="119.5,4.6 128.5,9.8 128.5,9.5 119.7,4.5 			"/>
			<polygon class="st0" points="120.5,4 128.5,8.6 128.5,8.4 120.7,3.9 			"/>
			<polygon class="st0" points="121.4,3.4 128.5,7.5 128.5,7.3 121.7,3.3 			"/>
		</g>
		<g>
			<polygon class="st0" points="198.4,207.3 208.1,212.9 208.4,212.7 198.4,206.9 			"/>
			<polygon class="st0" points="198.4,205.6 209.5,212.1 209.8,211.9 198.4,205.3 			"/>
			<polygon class="st0" points="198.4,204 210.9,211.3 211.2,211.1 198.4,203.7 			"/>
			<polygon class="st0" points="198.4,202.4 212.3,210.4 212.6,210.3 198.4,202.1 			"/>
			<polygon class="st0" points="198.4,200.8 213.7,209.6 214,209.5 198.4,200.5 			"/>
			<polygon class="st0" points="198.4,199.2 215.1,208.8 215.4,208.7 198.4,198.9 			"/>
			<polygon class="st0" points="198.4,197.4 198.4,197.6 216.5,208 216.7,207.9 216.7,207.8 198.5,197.3 			"/>
			<polygon class="st0" points="199.6,196.7 216.7,206.5 216.7,206.2 199.9,196.5 			"/>
			<polygon class="st0" points="201,195.9 216.7,204.9 216.7,204.6 201.3,195.7 			"/>
			<polygon class="st0" points="202.4,195.1 216.7,203.3 216.7,203 202.7,194.9 			"/>
			<polygon class="st0" points="203.8,194.3 216.7,201.7 216.7,201.4 204.1,194.1 			"/>
			<polygon class="st0" points="205.2,193.5 216.7,200.1 216.7,199.8 205.5,193.3 			"/>
			<polygon class="st0" points="206.6,192.7 216.7,198.5 216.7,198.1 206.9,192.5 			"/>
		</g>
		<g>
			<polygon class="st0" points="157.9,126.2 224.5,164.4 225.6,163.7 157.9,124.9 			"/>
			<polygon class="st0" points="157.9,119.9 229.9,161.2 231.1,160.6 157.9,118.6 			"/>
			<polygon class="st0" points="157.9,113.6 220.4,149.6 221.5,149 157.9,112.3 			"/>
			<polygon class="st0" points="157.9,107.4 225.8,146.5 227,145.8 157.9,106 			"/>
			<polygon class="st0" points="157.9,101.1 231.3,143.3 232.4,142.7 157.9,99.7 			"/>
			<polygon class="st0" points="157.9,94.8 236.7,140.2 237.9,139.5 157.9,93.5 			"/>
			<polygon class="st0" points="157.9,87.7 157.9,88.5 242.2,137.1 242.9,136.6 242.9,136.1 158.4,87.4 			"/>
			<polygon class="st0" points="162.6,85 229.2,123.4 229.2,122 163.8,84.3 			"/>
			<polygon class="st0" points="168.1,81.8 229.2,117.1 229.2,115.8 169.2,81.1 			"/>
			<polygon class="st0" points="173.5,78.7 229.2,110.8 229.2,109.5 174.7,78 			"/>
			<polygon class="st0" points="179,75.5 229.2,104.5 229.2,103.2 180.1,74.9 			"/>
			<polygon class="st0" points="184.4,72.4 229.2,98.3 229.2,96.9 185.6,71.7 			"/>
			<polygon class="st0" points="189.8,69.3 229.2,92 229.2,90.6 191,68.6 			"/>
		</g>
		<g>
			<polygon class="st0" points="158,48.7 91.4,10.6 90.3,11.3 158,50.1 			"/>
			<polygon class="st0" points="158,55 72.6,6 71.4,6.7 158,56.4 			"/>
			<polygon class="st0" points="158,61.3 95.5,25.3 94.3,26 158,62.6 			"/>
			<polygon class="st0" points="158,67.6 90.1,28.5 88.9,29.1 158,68.9 			"/>
			<polygon class="st0" points="158,73.9 84.6,31.6 83.5,32.3 158,75.2 			"/>
			<polygon class="st0" points="158,80.2 79.2,34.7 78,35.4 158,81.5 			"/>
			<polygon class="st0" points="158,87.3 158,86.4 73.7,37.9 73,38.3 73,38.8 157.5,87.5 			"/>
		</g>
		<g>
			<polygon class="st0" points="63.9,195.3 124.6,230.3 125.8,229.6 63.9,193.9 			"/>
			<polygon class="st0" points="63.9,189 130.1,227.1 131.2,226.5 63.9,187.6 			"/>
			<polygon class="st0" points="63.9,182.7 135.5,224 136.7,223.3 63.9,181.4 			"/>
			<polygon class="st0" points="63.9,176.4 141,220.9 142.1,220.2 63.9,175.1 			"/>
			<polygon class="st0" points="63.9,170.1 146.4,217.7 147.6,217 63.9,168.8 			"/>
			<polygon class="st0" points="45.5,153.4 151.8,214.6 153,213.9 45.5,152 			"/>
			<polygon class="st0" points="45.5,146.3 45.5,147.1 157.3,211.4 158,211 158,210.5 46,146 			"/>
			<polygon class="st0" points="91.4,167.1 158,205.6 158,204.2 92.6,166.5 			"/>
			<polygon class="st0" points="96.9,164 158,199.3 158,197.9 98,163.3 			"/>
			<polygon class="st0" points="102.3,160.9 158,193 158,191.7 103.5,160.2 			"/>
			<polygon class="st0" points="107.8,157.7 158,186.7 158,185.4 108.9,157 			"/>
			<polygon class="st0" points="113.2,154.6 158,180.4 158,179.1 114.4,153.9 			"/>
			<polygon class="st0" points="118.6,151.4 158,174.1 158,172.8 119.8,150.8 			"/>
		</g>
		<polygon class="st0" points="69.9,102.1 75.5,98.9 81.1,102.1 81.1,108.6 75.5,111.9 69.9,108.6 		"/>
		<polygon class="st0" points="165.5,59.4 171.1,56.1 176.8,59.4 176.8,65.9 171.1,69.1 165.5,65.9 		"/>
		<polygon class="st0" points="72.8,124.3 75.5,122.8 78.3,124.3 78.3,127.5 75.5,129.1 72.8,127.5 		"/>
		<polygon class="st0" points="27.5,124.3 30.2,122.8 32.9,124.3 32.9,127.5 30.2,129.1 27.5,127.5 		"/>
		<polygon class="st0" points="72.8,142.7 75.5,141.1 78.3,142.7 78.3,145.8 75.5,147.4 72.8,145.8 		"/>
		<polygon class="st0" points="26.9,77.2 29.6,75.6 32.3,77.2 32.3,80.3 29.6,81.9 26.9,80.3 		"/>
		<polygon class="st0" points="220.7,61.1 223.4,59.5 226.2,61.1 226.2,64.3 223.4,65.9 220.7,64.3 		"/>
		<polygon class="st0" points="94.1,65.8 96.9,64.2 99.6,65.8 99.6,68.9 96.9,70.5 94.1,68.9 		"/>
		<polygon class="st0" points="220.7,177 223.4,175.4 226.2,177 226.2,180.2 223.4,181.7 220.7,180.2 		"/>
		<polygon class="st0" points="220.7,187.3 223.4,185.7 226.2,187.3 226.2,190.4 223.4,192 220.7,190.4 		"/>
		<polygon class="st0" points="142.3,30.2 145,28.6 147.8,30.2 147.8,33.4 145,35 142.3,33.4 		"/>
		<polygon class="st0" points="140.3,16.1 145,13.3 149.8,16.1 149.8,21.6 145,24.4 140.3,21.6 		"/>
		<polygon class="st0" points="182.6,202.3 187.3,199.5 192.1,202.3 192.1,207.8 187.3,210.6 182.6,207.8 		"/>
	</g>
</g>
</svg>
