<svg id="Layer_1" data-name="Layer 1" xmlns="http://www.w3.org/2000/svg" xmlns:xlink="http://www.w3.org/1999/xlink" viewBox="0 0 749.22 768.64"><defs><clipPath id="clip-path" transform="translate(-118.69 -115.68)"><rect width="1000" height="1000" style="fill:none"/></clipPath></defs><title>ORIENT SYMBOL (1)</title><g style="clip-path:url(#clip-path)"><g style="clip-path:url(#clip-path)"><path d="M838,364.29a366.65,366.65,0,0,1,29.89,145.86q0,77-29.89,145.87-29,68-79.73,118.67A376,376,0,0,1,638.7,855.32a381.26,381.26,0,0,1-291.72,0A359.1,359.1,0,0,1,228.3,774.7,359.72,359.72,0,0,1,147.67,656a381.58,381.58,0,0,1,0-291.73A376.44,376.44,0,0,1,228.3,244.72Q279,194,347,165q68.83-29.9,145.86-29.9A366.42,366.42,0,0,1,638.7,165C684,184.34,728,214.56,757.39,244.72c0,0,47.2,41.95,80.63,119.58M492.85,881.22c59.18,0,111-13.42,163.54-38.07,47-22,119.15-86.93,143.13-149.51,6-15.56,12.22-32.48,17.66-51.2a520.92,520.92,0,0,0,13.58-61.63,464.75,464.75,0,0,0,0-141.75c-3.62-22-14.62-79.12-34.14-118.62-26.73-54.09-60.19-98.64-128.34-137.8C619.14,154.39,552,138.21,492.85,138.21S370.1,152.91,317,183.55c-53.62,30.93-100.8,73.86-131.7,144.51-6.57,15-12.24,32-17.68,50.75a474.15,474.15,0,0,0-18.12,131.34,512,512,0,0,0,5,69.76c7.32,53.55,26,104.18,42.61,133,17.13,29.8,33.73,74.54,124.45,125.62,52.11,29.33,112.13,42.66,171.31,42.66" transform="translate(-118.69 -115.68)" style="fill:#fe5442"/><path d="M802.66,121.32c-25.58,13-58.41,90.58-58.41,90.58C783.58,182.36,813,217.14,846,200.28c18.8-9.59,28-40,17.53-60.54s-35.29-31.44-60.87-18.42" transform="translate(-118.69 -115.68)" style="fill:#fe5442"/></g></g></svg>