<?xml version="1.0" encoding="utf-8"?>
<!-- Generator: Adobe Illustrator 19.2.1, SVG Export Plug-In . SVG Version: 6.00 Build 0)  -->
<svg version="1.1" id="Layer_1" xmlns="http://www.w3.org/2000/svg" xmlns:xlink="http://www.w3.org/1999/xlink" x="0px" y="0px"
	 viewBox="0 0 1748 1000" enable-background="new 0 0 1748 1000" xml:space="preserve">
<g>
	<defs>
		<rect id="SVGID_1_" x="374" width="1000" height="1000"/>
	</defs>
	<clipPath id="SVGID_2_">
		<use xlink:href="#SVGID_1_"  overflow="visible"/>
	</clipPath>
	<g clip-path="url(#SVGID_2_)">
		<defs>
			<rect id="SVGID_3_" x="374" width="1000" height="1000"/>
		</defs>
		<clipPath id="SVGID_4_">
			<use xlink:href="#SVGID_3_"  overflow="visible"/>
		</clipPath>
		<g clip-path="url(#SVGID_4_)">
			<path fill="#3A6D89" d="M1170.6,320.4c-26.7-54.1-60.2-98.6-128.3-137.8c-49.1-28.2-116.3-44.4-175.4-44.4
				c-59.2,0-122.7,14.7-175.9,45.3c-53.6,30.9-100.8,73.9-131.7,144.5c-6.6,15-12.2,32-17.7,50.8c-5.4,18.7-9.8,39.1-13.1,61.2
				c-3.3,22.1-5,45.4-5,70.2c0,24.8,2,48,5,69.8c7.3,53.5,26,104.2,42.6,133c17.1,29.8,33.7,74.5,124.4,125.6
				c52.1,29.3,112.1,42.7,171.3,42.7c59.2,0,111-13.4,163.5-38.1c47-22,119.2-86.9,143.1-149.5c6-15.6,12.2-32.5,17.7-51.2
				c5.4-18.7,10-39.3,13.6-61.6c3.6-22.3,5.4-45.9,5.4-70.7c0-25.4-1.8-49.1-5.4-71.1C1201.1,417,1190.1,359.9,1170.6,320.4z"/>
			<path fill="#3A6D89" d="M0,0v1000h1748V0H0z M1176.7,121.3c25.6-13,50.4-2.1,60.9,18.4c10.4,20.5,1.3,50.9-17.5,60.5
				c-33,16.9-62.4-17.9-101.7,11.6C1118.3,211.9,1151.1,134.3,1176.7,121.3z M1212,656c-19.3,45.3-45.9,84.9-79.7,118.7
				c-34.4,34.4-74.3,61.3-119.6,80.6c-47.1,19.4-95.7,29-145.9,29c-50.1,0-98.8-9.6-145.9-29c-44.7-18.7-84.3-45.6-118.7-80.6
				c-35-34.4-61.9-74-80.6-118.7c-19.3-47.1-29-95.7-29-145.9c0-50.1,9.6-98.7,29-145.9c19.3-45.3,46.2-85.2,80.6-119.6
				c33.8-33.8,73.4-60.4,118.7-79.7c45.9-19.9,94.5-29.9,145.9-29.9c50.7,0,99.4,10,145.9,29.9c45.3,19.3,89.3,49.6,118.7,79.7
				c0,0,47.2,41.9,80.6,119.6c19.9,46.5,29.9,95.1,29.9,145.9C1241.9,561.5,1231.9,610.1,1212,656z"/>
		</g>
	</g>
</g>
<rect x="-4" fill="#3A6D89" width="383.6" height="1000"/>
<rect x="1372.6" y="0" fill="#3A6D89" width="375.4" height="1000"/>
</svg>
